<svg width="100" height="100" viewBox="0 0 100 100" fill="none" xmlns="http://www.w3.org/2000/svg">
<path d="M3 100V0H62.2974C72.5425 0 80.4592 2.43271 86.0474 7.29814C91.7391 12.1636 94.585 19.1511 94.585 28.2609C94.585 33.2298 93.7053 37.4741 91.9461 40.9938C90.2903 44.5135 88.0654 47.3085 85.2712 49.3789C89.2037 51.2422 92.3083 53.675 94.585 56.677C96.8617 59.5756 98 63.9234 98 69.7205C98 79.1408 94.8954 86.5424 88.6863 91.9255C82.5806 97.3085 73.9913 100 62.9183 100H3ZM38.2369 38.354H52.2075C57.1748 38.354 59.6585 36.1284 59.6585 31.677C59.6585 27.5362 57.1748 25.4658 52.2075 25.4658H38.2369V38.354ZM38.2369 74.5342H52.2075C57.1748 74.5342 59.6585 72.3085 59.6585 67.8571C59.6585 63.7164 57.1748 61.646 52.2075 61.646H38.2369V74.5342Z" fill="#F08200"/>
</svg>
